<svg width="44" height="44" viewBox="0 0 44 44" fill="none" xmlns="http://www.w3.org/2000/svg">
<path d="M0 12C0 5.37258 5.37258 0 12 0H32C38.6274 0 44 5.37258 44 12V32C44 38.6274 38.6274 44 32 44H12C5.37258 44 0 38.6274 0 32V12Z" fill="#2F3231"/>
<path d="M32 19.5C32 17.4094 30.525 15.6594 28.5625 15.2281V13.25C28.5625 12.5594 28.0031 12 27.3125 12C26.6219 12 26.0625 12.5594 26.0625 13.25V15.125H23.25V13.25C23.25 12.5594 22.6906 12 22 12C21.3094 12 20.75 12.5594 20.75 13.25V15.125H17.9375V13.25C17.9375 12.5594 17.3781 12 16.6875 12C15.9969 12 15.4375 12.5594 15.4375 13.25V15.2281C13.475 15.6594 12 17.4094 12 19.5V27.625C12 30.0375 13.9625 32 16.375 32H24.5C28.6344 32 32 28.6344 32 24.5V19.5ZM25.125 29.4562V27C25.125 25.9656 25.9656 25.125 27 25.125H29.4562C29.1719 27.3813 27.3813 29.1719 25.125 29.4562ZM29.5 22.625H27C24.5875 22.625 22.625 24.5875 22.625 27V29.5H16.375C15.3406 29.5 14.5 28.6594 14.5 27.625V19.5C14.5 18.4656 15.3406 17.625 16.375 17.625H27.625C28.6594 17.625 29.5 18.4656 29.5 19.5V22.625Z" fill="#C6C9C8"/>
</svg>
