<svg width="20" height="20" viewBox="0 0 20 20" fill="none" xmlns="http://www.w3.org/2000/svg">
<path fill-rule="evenodd" clip-rule="evenodd" d="M10 2.5C9.30964 2.5 8.75 3.05964 8.75 3.75V8.75H3.75C3.05964 8.75 2.5 9.30964 2.5 10C2.5 10.6904 3.05964 11.25 3.75 11.25H8.75V16.25C8.75 16.9404 9.30964 17.5 10 17.5C10.6904 17.5 11.25 16.9404 11.25 16.25V11.25H16.25C16.9404 11.25 17.5 10.6904 17.5 10C17.5 9.30964 16.9404 8.75 16.25 8.75H11.25V3.75C11.25 3.05964 10.6904 2.5 10 2.5Z" fill="white"/>
</svg>
