<svg width="19" height="19" viewBox="0 0 19 19" fill="none" xmlns="http://www.w3.org/2000/svg">
<path fill-rule="evenodd" clip-rule="evenodd" d="M15.9286 10.7857H13.3571V8.21429H10.7857V10.7857H8.21429V13.3571H10.7857V15.9286H8.21429H5.64286V13.3571V10.7857H3.07143H0.5V8.21429V5.64286V3.07143V0.5H3.07143H5.64286H8.21429H10.7857V3.07143V5.64286H13.3571V3.07143H15.9286V5.64286H18.5V8.21429V10.7857V13.3571H15.9286V10.7857ZM3.07143 3.07143V5.64286V8.21429H5.64286H8.21429V5.64286V3.07143H5.64286H3.07143ZM15.9286 0.5H18.5V3.07143H15.9286V0.5ZM10.7857 10.7857H13.3571V13.3571H10.7857V10.7857ZM0.5 13.3571H3.07143V15.9286H0.5V13.3571ZM3.07143 15.9286H5.64286V18.5H3.07143V15.9286ZM15.9286 15.9286H18.5V18.5H15.9286V15.9286ZM10.7857 15.9286H13.3571V18.5H10.7857V15.9286ZM4.35714 4.35714H6.92857V6.92857H4.35714V4.35714Z" fill="#111111"/>
</svg>
