<svg width="119" height="202" viewBox="0 0 119 202" fill="none" xmlns="http://www.w3.org/2000/svg">
	<g opacity="0.8" clip-path="url(#clip0_785_3304)">
	<path d="M2 50.0082C2.02031 49.228 2.02268 48.4466 2.06585 47.6677C2.11231 46.8283 2.16425 45.988 2.29851 45.1558C2.411 44.4581 2.51416 43.759 2.62116 43.0604C2.62847 43.0122 2.63616 42.9637 2.63945 42.9152C2.66432 42.5356 2.79382 42.18 2.88747 41.816C2.95387 41.5574 3.02666 41.3002 3.08611 41.0399C3.22384 40.436 3.36065 39.832 3.55197 39.2423C3.60044 39.0931 3.6469 38.9423 3.71055 38.7993C3.88852 38.4002 3.95474 37.9642 4.1263 37.563C4.1927 37.4076 4.23641 37.2427 4.30043 37.0862C4.59327 36.3699 4.88903 35.6548 5.18515 34.9399C5.20345 34.8956 5.23637 34.8573 5.25795 34.814C5.46866 34.3901 5.67864 33.9658 5.88825 33.5414C5.90965 33.498 5.92264 33.4499 5.94715 33.4083C6.40405 32.6339 6.86278 31.8607 7.31969 31.0863C7.7636 30.3339 8.26861 29.6221 8.79154 28.9244C9.12498 28.4794 9.47489 28.0462 9.83265 27.619C10.1123 27.2852 10.4037 26.9616 10.685 26.6294C10.9444 26.323 11.22 26.0298 11.4986 25.7405C11.8274 25.3991 12.162 25.0627 12.504 24.7346C12.784 24.4659 13.074 24.2069 13.3675 23.953C13.7236 23.6452 14.0882 23.3472 14.4489 23.0447C14.4858 23.0138 14.5164 22.972 14.5577 22.9499C15.0826 22.6689 15.5061 22.2436 16.0166 21.9368C16.4526 21.6749 16.8667 21.3733 17.3108 21.122C17.8914 20.7935 18.4452 20.4163 19.0715 20.1699C19.2389 20.104 19.3909 19.9973 19.5465 19.9034C19.954 19.6576 20.4093 19.518 20.8384 19.3197C21.3759 19.0714 21.9256 18.8494 22.4725 18.6217C22.629 18.5565 22.7911 18.5003 22.9555 18.4601C23.3446 18.3649 23.7029 18.1912 24.0722 18.0446C24.2518 17.9732 24.4376 17.8986 24.6268 17.8748C25.101 17.8147 25.5373 17.616 26.0024 17.5272C26.2468 17.3767 26.5561 17.4388 26.7993 17.2836C26.8187 17.2713 26.846 17.268 26.8699 17.2667C27.102 17.2538 27.3226 17.187 27.5482 17.1374C28.1658 17.0014 28.7916 16.9031 29.4105 16.7718C29.971 16.6531 30.5416 16.5925 31.1006 16.477C31.5306 16.388 31.9643 16.3293 32.3956 16.2563C33.0078 16.1527 33.6275 16.0937 34.2444 16.0198C34.4621 15.9938 34.681 15.9782 34.8996 15.961C35.2398 15.9345 35.58 15.9098 35.9204 15.8858C36.0905 15.8739 36.2626 15.877 36.4311 15.8536C37.3884 15.7202 38.3525 15.7293 39.3148 15.7216C40.2897 15.714 41.2648 15.7392 42.2398 15.75C42.2764 15.7504 42.313 15.7506 42.3494 15.7539C43.1745 15.8271 44.0007 15.8909 44.8243 15.9775C45.4298 16.0412 46.0337 16.1245 46.6353 16.2182C46.9949 16.2742 47.3488 16.3675 47.7055 16.4431C47.9791 16.5012 48.2522 16.5626 48.5271 16.6139C49.0906 16.7188 49.637 16.8875 50.1857 17.0489C50.4529 17.1275 50.7257 17.187 50.996 17.2552C51.0313 17.2642 51.0675 17.2708 51.1013 17.2838C51.5412 17.4536 51.9724 17.6524 52.4225 17.7875C52.9246 17.9381 53.3831 18.178 53.8605 18.3803C54.2285 18.5362 54.5998 18.683 54.9581 18.8613C55.3699 19.0661 55.7766 19.2831 56.1984 19.4647C56.7696 19.7107 57.2732 20.0775 57.8318 20.3445C57.9291 20.391 58.0176 20.4605 58.1016 20.5299C58.3657 20.7477 58.6761 20.8863 58.9688 21.0561C59.2837 21.2388 59.5908 21.4355 59.8966 21.6336C60.2019 21.8312 60.5019 22.0373 60.8026 22.2419C60.9021 22.3097 60.9977 22.3836 61.0938 22.4563C61.6637 22.8871 62.236 23.3146 62.8014 23.7515C63.0406 23.9366 63.2526 24.1582 63.4981 24.3337C63.8844 24.6097 64.2122 24.9516 64.5767 25.2514C64.8106 25.4438 65.0266 25.6587 65.2443 25.8702C65.5567 26.1741 65.8656 26.4817 66.1715 26.7921C66.4948 27.1205 66.8221 27.4459 67.1312 27.7874C67.5625 28.264 67.9786 28.7543 68.4002 29.2397C68.4399 29.2853 68.4655 29.3444 68.509 29.3851C68.9557 29.8027 69.2546 30.3394 69.6495 30.7995C69.9004 31.092 70.1009 31.4276 70.3233 31.7446C70.4692 31.9525 70.6075 32.1659 70.7602 32.3686C71.001 32.6881 71.1754 33.0498 71.4346 33.3606C71.6263 33.5904 71.7306 33.8908 71.895 34.1461C72.2766 34.7391 72.5736 35.3788 72.927 35.9868C73.2076 36.4696 73.4142 36.9878 73.6773 37.4777C73.9577 38.0004 74.1713 38.5523 74.4041 39.0955C74.6478 39.6634 74.8698 40.2405 75.0963 40.8156C75.163 40.985 75.2296 41.1576 75.2675 41.3348C75.3518 41.7305 75.5451 42.0869 75.6567 42.4719C75.7412 42.7633 75.8326 43.0527 75.9138 43.345C75.9855 43.6032 76.0417 43.8659 76.1149 44.1237C76.2347 44.5453 76.3746 44.9613 76.4831 45.3855C76.5462 45.6322 76.5575 45.8916 76.6043 46.1429C76.6512 46.3938 76.7133 46.642 76.7689 46.8915C76.7742 46.9152 76.7823 46.9387 76.7859 46.9627C76.8492 47.3715 76.8999 47.7828 76.978 48.1889C77.0705 48.6688 77.0976 49.1551 77.1569 49.6379C77.2046 50.026 77.2408 50.4129 77.2588 50.8029C77.2734 51.1192 77.3085 51.4343 77.3347 51.7501C77.3508 51.9444 77.3799 52.1388 77.3811 52.3332C77.3857 53.0649 77.3883 53.7966 77.3753 54.5282C77.3722 54.7034 77.4082 54.8342 77.5454 54.9411C77.6694 55.0377 77.7822 55.149 77.9088 55.2418C78.4943 55.6712 79.082 56.0976 79.6711 56.5223C79.8873 56.6782 80.1097 56.8257 80.329 56.9774C80.7689 57.2815 81.2096 57.5845 81.648 57.8907C81.7475 57.9601 81.8358 58.0454 81.935 58.1153C82.4497 58.479 82.9666 58.8399 83.4822 59.2023C83.8679 59.4735 84.2513 59.7485 84.6395 60.0164C84.8386 60.1539 85.0499 60.2739 85.2493 60.4114C85.7574 60.7619 86.2591 61.1219 86.7687 61.4704C87.1297 61.7173 87.4996 61.9515 87.8654 62.1915C87.8857 62.2048 87.9056 62.2186 87.9256 62.2323C88.736 62.7885 89.5439 63.3484 90.3581 63.8993C90.7776 64.1832 91.2089 64.4496 91.6331 64.7267C91.7134 64.7793 91.7816 64.8501 91.8616 64.9037C92.0628 65.0384 92.2691 65.1655 92.4699 65.3005C92.6504 65.4219 92.8249 65.5527 93.0053 65.6745C93.3065 65.878 93.6023 66.091 93.9154 66.2744C94.168 66.4225 94.4058 66.5898 94.6476 66.7527C95.0407 67.0175 95.4323 67.2847 95.8286 67.5444C96.6475 68.0809 97.4697 68.6122 98.2891 69.1475C98.7455 69.4457 99.1987 69.7484 99.6542 70.0479C100.029 70.2942 100.414 70.5261 100.778 70.7875C101.33 71.1843 101.942 71.4862 102.488 71.8951C102.884 72.1925 103.321 72.4363 103.74 72.7045C104.321 73.0762 104.909 73.4369 105.48 73.8233C106.1 74.2428 106.735 74.64 107.355 75.0596C108.039 75.5232 108.74 75.9631 109.433 76.4131C109.505 76.4594 109.582 76.4991 109.647 76.5529C110.143 76.9616 110.689 77.3028 111.197 77.6945C111.331 77.7977 111.447 77.9275 111.59 78.0153C111.995 78.2646 112.317 78.6134 112.689 78.9017C112.967 79.1168 113.225 79.3593 113.479 79.6033C113.863 79.9731 114.245 80.3474 114.612 80.7343C114.828 80.962 115.021 81.2135 115.213 81.4626C115.487 81.8164 115.761 82.17 115.984 82.56C116.079 82.7279 116.188 82.8886 116.293 83.0509C116.446 83.2877 116.505 83.5637 116.613 83.8193C116.679 83.9756 116.721 84.1417 116.776 84.3028C116.888 84.6277 116.936 84.9644 116.976 85.3039C117.041 85.8453 116.97 86.3684 116.825 86.8912C116.753 87.1507 116.666 87.4027 116.561 87.6478C116.442 87.9256 116.307 88.1978 116.166 88.4652C115.841 89.0799 115.443 89.6365 114.914 90.1005C114.379 90.5707 113.786 90.9269 113.126 91.1948C112.657 91.3848 112.167 91.4644 111.684 91.5828C111.568 91.6114 111.442 91.6086 111.32 91.6099C110.93 91.6139 110.54 91.6165 110.15 91.6128C109.882 91.6103 109.619 91.5751 109.355 91.516C109.048 91.4474 108.732 91.4133 108.429 91.3187C108.036 91.1955 107.637 91.0861 107.252 90.9389C106.822 90.7739 106.404 90.5736 105.981 90.3873C105.903 90.3531 105.824 90.3181 105.753 90.2729C105.259 89.9629 104.733 89.711 104.252 89.3766C103.685 88.9824 103.114 88.5955 102.561 88.1807C101.728 87.5557 100.91 86.9122 100.098 86.2599C99.5109 85.7877 98.9167 85.3239 98.331 84.8495C97.9827 84.5675 97.6458 84.271 97.3023 83.9829C96.9129 83.6564 96.5215 83.3322 96.1315 83.0064C95.7418 82.6808 95.354 82.353 94.9633 82.0287C94.6172 81.7414 94.2666 81.4595 93.9211 81.1714C93.6873 80.9767 93.4614 80.7724 93.2275 80.5779C92.7163 80.1525 92.1988 79.7347 91.6902 79.3062C91.3214 78.9956 90.9642 78.6713 90.5995 78.3559C90.3703 78.1577 90.1371 77.9641 89.9046 77.7697C89.4382 77.3795 88.9753 76.9851 88.503 76.6022C88.1632 76.3265 87.8103 76.067 87.4632 75.8002C86.9926 75.4383 86.5291 75.0666 86.0491 74.7174C85.6085 74.3967 85.2057 74.0277 84.745 73.732C84.4609 73.5497 84.2052 73.3233 83.9362 73.1174C83.6956 72.9333 83.4542 72.7502 83.2133 72.5665C83.1072 72.4856 83.0015 72.4039 82.8956 72.3227C82.472 71.9978 82.0495 71.6711 81.6242 71.3484C81.1891 71.0183 80.7521 70.6905 80.3142 70.3643C80.1783 70.2631 80.0342 70.1732 79.8979 70.0724C79.557 69.8198 79.2186 69.5641 78.8793 69.3095C78.4819 69.0116 78.1005 68.688 77.6824 68.4222C77.2103 68.1221 76.802 67.7388 76.3234 67.4476C75.9614 67.2274 75.6355 66.9483 75.2925 66.6967C75.2044 66.6319 75.1153 66.568 75.0225 66.5102C74.8799 66.4212 74.7725 66.471 74.7244 66.6379C74.6843 66.7772 74.6311 66.913 74.5956 67.0534C74.4879 67.4782 74.3134 67.8786 74.1568 68.2859C74.1005 68.4325 74.0429 68.5813 74.0118 68.7343C73.9458 69.0593 73.7762 69.3421 73.6601 69.6463C73.5564 69.9175 73.4455 70.1846 73.3599 70.4637C73.282 70.7172 73.1792 70.9688 73.0466 71.1978C72.8988 71.4531 72.8024 71.7269 72.691 71.9951C72.4298 72.6239 72.156 73.2459 71.8288 73.8442C71.6424 74.1851 71.5072 74.5532 71.292 74.8797C70.9907 75.3364 70.7705 75.8406 70.4442 76.2848C70.2664 76.5268 70.1579 76.824 69.9553 77.0484C69.7656 77.2585 69.6606 77.5157 69.5015 77.7411C69.3412 77.9683 69.1501 78.1742 69.0341 78.4321C69.01 78.4857 68.9614 78.5282 68.9233 78.5754C68.3519 79.2819 67.8239 80.0231 67.2223 80.7049C66.7079 81.288 66.2068 81.8834 65.6509 82.4292C65.3239 82.7504 65.018 83.0934 64.6868 83.4102C64.3548 83.7277 64.0046 84.0264 63.6596 84.3304C63.3779 84.5788 63.0917 84.822 62.8087 85.0691C62.7012 85.1632 62.6882 85.2575 62.7714 85.392C63.1992 86.0831 63.5389 86.8256 64.0002 87.497C64.2292 88.0612 64.6093 88.5395 64.8982 89.0701C65.1819 89.5908 65.4971 90.0943 65.7934 90.6082C66.1146 91.1653 66.4299 91.726 66.7485 92.2847C66.7787 92.3374 66.8153 92.3865 66.8473 92.4383C67.3774 93.2958 67.8698 94.1754 68.3832 95.0426C68.5432 95.3127 68.6797 95.596 68.8747 95.8466C68.9694 95.9683 69.0206 96.1233 69.0991 96.2589C69.2509 96.5209 69.4086 96.7793 69.5628 97.0397C69.834 97.4982 70.1029 97.958 70.3756 98.4155C70.5117 98.6438 70.6624 98.8638 70.7912 99.0958C71.0211 99.5108 71.2967 99.8988 71.5252 100.312C71.719 100.663 71.9277 101.002 72.1406 101.341C72.3856 101.731 72.5919 102.145 72.8262 102.541C72.9798 102.802 73.1618 103.045 73.3155 103.305C73.5064 103.628 73.6862 103.958 73.9112 104.261C74.0111 104.395 74.0709 104.558 74.1583 104.703C74.56 105.366 74.9618 106.029 75.3699 106.689C75.7346 107.278 76.1118 107.86 76.4761 108.449C76.7442 108.883 76.9924 109.33 77.2643 109.761C77.5743 110.254 77.8351 110.776 78.1728 111.251C78.2907 111.418 78.3675 111.613 78.4725 111.789C78.7758 112.299 79.0838 112.805 79.3902 113.313C79.6408 113.728 79.9016 114.138 80.1405 114.56C80.4937 115.184 80.8341 115.815 81.1752 116.446C81.4755 117.002 81.7705 117.56 82.0654 118.118C82.2011 118.375 82.3383 118.632 82.4618 118.894C82.611 119.212 82.7454 119.536 82.8881 119.856C83.0251 120.164 83.1919 120.462 83.296 120.78C83.4577 121.275 83.6905 121.743 83.8125 122.253C83.9022 122.629 84.0505 122.99 84.165 123.36C84.2296 123.569 84.2937 123.779 84.3318 123.993C84.4 124.377 84.469 124.762 84.501 125.15C84.5665 125.94 84.5784 126.732 84.5271 127.526C84.4865 128.153 84.3428 128.748 84.0805 129.319C83.8725 129.771 83.6625 130.22 83.3436 130.608C83.3207 130.636 83.3075 130.673 83.2825 130.698C83.0692 130.912 82.8382 131.111 82.6439 131.341C82.4442 131.577 82.2084 131.764 81.9533 131.927C81.6974 132.09 81.4272 132.231 81.1637 132.382C80.8163 132.581 80.4613 132.764 80.0777 132.885C80.0201 132.904 79.9638 132.935 79.9051 132.94C79.6077 132.963 79.3413 133.085 79.0719 133.197C78.8254 133.299 78.5861 133.421 78.3344 133.507C78.0948 133.59 77.8437 133.638 77.5971 133.7C77.5029 133.723 77.4071 133.741 77.3129 133.765C77.2542 133.78 77.1982 133.813 77.1391 133.818C76.5582 133.871 75.989 134.026 75.3981 133.996C74.9609 133.973 74.527 133.971 74.0906 133.889C73.7321 133.822 73.3826 133.717 73.0217 133.665C72.8516 133.536 72.6237 133.579 72.4436 133.461C72.2733 133.35 72.0785 133.276 71.8948 133.185C71.7212 133.1 71.5467 133.015 71.3748 132.927C71.2887 132.882 71.202 132.836 71.1242 132.778C70.4392 132.272 69.7579 131.759 69.1926 131.116C68.8898 130.772 68.5412 130.463 68.3186 130.052C67.7774 129.441 67.3737 128.734 66.9322 128.054C66.6737 127.656 66.4272 127.249 66.1998 126.832C65.9033 126.289 65.6306 125.733 65.3484 125.182C65.1825 124.858 65.0173 124.534 64.8533 124.209C64.6572 123.821 64.4507 123.438 64.2707 123.042C64.0903 122.646 63.8842 122.264 63.6777 121.881C63.6093 121.754 63.5727 121.61 63.5081 121.481C63.298 121.059 63.0809 120.64 62.8678 120.22C62.7028 119.895 62.5415 119.568 62.3747 119.244C62.2858 119.071 62.1877 118.904 62.0952 118.733C62.0081 118.572 61.9183 118.413 61.8377 118.249C61.4396 117.443 61.0367 116.638 60.652 115.825C60.5238 115.554 60.3843 115.286 60.3064 114.992C60.2884 114.924 60.2456 114.862 60.2072 114.801C60.0634 114.576 59.9191 114.352 59.8507 114.089C59.8418 114.054 59.8255 114.02 59.8065 113.989C59.5535 113.577 59.3651 113.133 59.1668 112.694C59.0624 112.463 58.9459 112.237 58.8389 112.006C58.5991 111.49 58.3615 110.973 58.1233 110.456C58.0473 110.291 57.973 110.125 57.8969 109.96C57.7601 109.663 57.6262 109.364 57.4843 109.069C57.3469 108.784 57.1924 108.507 57.0601 108.219C56.7453 107.535 56.4419 106.845 56.1287 106.16C55.9777 105.83 55.807 105.508 55.66 105.176C55.4937 104.8 55.3057 104.436 55.1207 104.07C55.0174 103.865 54.9451 103.645 54.8493 103.436C54.7536 103.228 54.643 103.026 54.5451 102.819C54.3959 102.502 54.2461 102.186 54.1076 101.864C53.8918 101.364 53.6617 100.871 53.4202 100.382C53.2807 100.099 53.1656 99.8043 53.0374 99.5159C53.008 99.4494 52.9703 99.3863 52.9363 99.3219C52.7709 99.0102 52.6085 98.6978 52.4794 98.3676C52.3865 98.1302 52.252 97.9097 52.1487 97.6759C51.8496 96.9991 51.51 96.3411 51.2177 95.6606C51.0752 95.3292 50.8707 95.0244 50.7317 94.6882C50.5561 94.264 50.3785 93.8399 50.1052 93.4654C50.0483 93.1757 49.8956 92.9253 49.7731 92.6629C49.6145 92.3233 49.4523 91.9857 49.2876 91.6489C49.256 91.5841 49.2104 91.5246 49.164 91.4686C49.0892 91.3782 48.9897 91.3209 48.8737 91.361C48.4779 91.4972 48.0483 91.4337 47.653 91.5775C47.5535 91.6138 47.4362 91.6035 47.3267 91.6088C47.0468 91.6227 46.7677 91.6315 46.4937 91.7067C46.3785 91.7384 46.2523 91.7336 46.1308 91.7393C45.8022 91.7551 45.4733 91.7666 45.1446 91.7818C45.0595 91.7856 44.9716 91.7845 44.8904 91.8059C44.5558 91.8945 44.2145 91.892 43.8734 91.8923C43.0567 91.8932 42.24 91.8918 41.4233 91.8896C41.2408 91.889 41.0614 91.8834 40.8867 91.8048C40.7907 91.7617 40.6734 91.756 40.5651 91.7519C40.0535 91.7331 39.5434 91.7062 39.036 91.628C38.8332 91.5967 38.6228 91.6077 38.4162 91.6119C38.0979 91.6183 37.7917 91.5848 37.48 91.4975C37.0718 91.3831 36.6452 91.335 36.2282 91.2505C35.7872 91.1611 35.3404 91.1093 34.8992 91.0116C34.5083 90.9249 34.1246 90.7925 33.7284 90.7471C33.2765 90.6952 32.8514 90.5443 32.4104 90.4579C31.9304 90.3641 31.4728 90.2028 31.0135 90.0425C30.7959 89.9665 30.5775 89.8953 30.3699 89.7917C30.2071 89.7105 30.0379 89.645 29.8471 89.6479C29.7655 89.6492 29.6812 89.6138 29.6015 89.5853C29.2371 89.4548 28.8722 89.3258 28.5112 89.1868C28.2516 89.0871 27.9988 88.97 27.7411 88.8654C27.5171 88.7747 27.2884 88.6949 27.0651 88.6024C26.9312 88.547 26.8026 88.4783 26.6729 88.413C26.3814 88.2659 26.0882 88.1246 25.7847 88.0006C25.4722 87.8729 25.178 87.699 24.8781 87.5413C24.3431 87.2599 23.8037 86.9863 23.2776 86.6893C22.7703 86.4028 22.2769 86.0913 21.7782 85.7897C21.5599 85.6576 21.339 85.5291 21.1274 85.3869C20.7039 85.1021 20.2917 84.8006 19.8651 84.5208C19.115 84.0286 18.4161 83.4673 17.718 82.9083C17.1515 82.4546 16.5944 81.9861 16.0696 81.4807C15.5789 81.008 15.0691 80.555 14.5738 80.087C14.4159 79.9376 14.2848 79.7603 14.129 79.6084C13.6181 79.1105 13.1561 78.5671 12.6829 78.036C12.2072 77.5023 11.7843 76.921 11.3437 76.3566C10.9994 75.9156 10.6592 75.4714 10.3254 75.0225C10.1381 74.7705 9.96471 74.5078 9.79003 74.2466C9.51476 73.8352 9.23619 73.4258 8.9728 73.0066C8.68985 72.5562 8.42372 72.0952 8.14844 71.6398C8.04821 71.4738 7.93499 71.3151 7.84134 71.1455C7.49491 70.5182 7.14647 69.8919 6.8134 69.2575C6.5138 68.6871 6.22736 68.1092 5.94733 67.5289C5.82076 67.2666 5.72418 66.9899 5.61261 66.7201C5.58023 66.6417 5.54621 66.5636 5.50744 66.4884C5.30715 66.1 5.14034 65.6988 5.00609 65.2821C4.91701 65.0059 4.79739 64.7396 4.69021 64.4692C4.61046 64.2681 4.51242 64.0724 4.45115 63.8658C4.33061 63.4595 4.16142 63.0711 4.03156 62.6686C3.97193 62.484 3.90992 62.2989 3.86987 62.1095C3.77183 61.6464 3.57045 61.2172 3.44223 60.765C3.36303 60.4853 3.3109 60.1981 3.24652 59.9143C3.19805 59.7009 3.15232 59.4867 3.10019 59.2742C3.01916 58.9444 2.93247 58.6159 2.85071 58.2863C2.83022 58.2037 2.81778 58.1192 2.80406 58.0352C2.79035 57.951 2.78742 57.8642 2.76602 57.782C2.63341 57.2743 2.55824 56.7569 2.49093 56.2373C2.42215 55.7056 2.33546 55.1761 2.25937 54.6453C2.23175 54.4522 2.20669 54.2584 2.18968 54.0642C2.07097 52.7151 1.99945 51.3637 2 50.0082ZM72.5306 64.3019C72.443 64.2163 72.3826 64.14 72.3062 64.0869C72.1977 64.0117 72.0662 63.9674 71.964 63.8856C71.5908 63.5878 71.1656 63.3791 70.7531 63.1476C70.5517 63.0345 70.3692 62.8831 70.1601 62.7891C69.5064 62.4948 68.882 62.1371 68.2116 61.8801C67.8154 61.7282 67.4269 61.5458 66.9927 61.5207C66.9567 61.5187 66.9164 61.5147 66.8865 61.4973C66.6973 61.3882 66.4875 61.3992 66.2816 61.3858C66.1356 61.3763 65.9878 61.3763 65.8444 61.3508C65.4556 61.2817 65.0678 61.2989 64.6788 61.3415C64.5215 61.3587 64.3632 61.3732 64.205 61.3783C63.6342 61.3971 63.0608 61.3776 62.497 61.5017C62.4028 61.5223 62.3032 61.5198 62.2058 61.5229C61.9379 61.5313 61.6694 61.5311 61.4018 61.5448C60.83 61.5741 60.2586 61.61 59.6872 61.6428C59.5656 61.6497 59.4438 61.6598 59.3221 61.6607C58.2496 61.6684 57.177 61.6796 56.1046 61.6788C55.4465 61.6785 54.7884 61.6623 54.1365 61.5514C54.0295 61.5333 53.9183 61.5395 53.8089 61.5366C53.6021 61.5311 53.3897 61.5546 53.1892 61.5159C52.8662 61.4535 52.5454 61.3878 52.2158 61.3748C52.1917 61.3739 52.1642 61.3724 52.1445 61.3607C51.9574 61.25 51.7463 61.2601 51.5416 61.2359C51.4818 61.2288 51.4231 61.211 51.364 61.1976C51.2226 61.1658 51.0814 61.1327 50.9397 61.1023C50.8564 61.0845 50.7648 61.0869 50.6904 61.052C50.5422 60.982 50.3862 60.9698 50.2289 60.9526C50.1442 60.9432 50.0564 60.9409 49.9761 60.9154C49.5505 60.7807 49.1091 60.707 48.6919 60.5335C48.2575 60.3528 47.8001 60.228 47.3541 60.0742C46.9197 59.9245 46.4999 59.7384 46.0864 59.5394C45.7588 59.3819 45.4356 59.2151 45.113 59.0475C44.9414 58.9583 44.7738 58.8613 44.6074 58.7629C44.419 58.6516 44.2348 58.5333 44.0475 58.4202C43.5674 58.1303 43.1194 57.7945 42.6772 57.4515C42.3995 57.2362 42.1488 56.9855 41.8669 56.7765C41.4555 56.4714 41.1318 56.0777 40.7709 55.723C40.4437 55.4012 40.1602 55.0346 39.8589 54.6863C39.8035 54.6221 39.7543 54.5524 39.7046 54.4835C39.5835 54.3166 39.4629 54.1493 39.3439 53.981C39.2385 53.8322 39.1321 53.6839 39.0316 53.5314C38.9177 53.3585 38.8087 53.1822 38.7002 53.0058C38.5094 52.6952 38.3093 52.3899 38.1343 52.0705C37.8956 51.6346 37.6686 51.1915 37.4528 50.7438C37.3321 50.4934 37.2251 50.233 37.1448 49.9672C37.0255 49.5731 36.8768 49.1906 36.7369 48.8044C36.667 48.6115 36.5891 48.419 36.5463 48.2195C36.4698 47.8639 36.4376 47.4978 36.3495 47.1457C36.2418 46.7157 36.1916 46.2853 36.2083 45.844C36.2114 45.7604 36.1935 45.6754 36.1797 45.592C36.158 45.4602 36.1223 45.3301 36.1095 45.1977C36.0898 44.9916 36.0726 44.7841 36.0753 44.5775C36.083 43.9684 36.1033 43.3592 36.1135 42.75C36.1172 42.5301 36.1335 42.3155 36.1807 42.098C36.2348 41.8493 36.2533 41.5932 36.3632 41.3579C36.378 41.326 36.3798 41.2863 36.3802 41.2501C36.3839 40.8719 36.4503 40.5033 36.5163 40.1316C36.5657 39.8539 36.6639 39.5955 36.7415 39.3298C36.8567 38.9352 37.0422 38.5638 37.1451 38.1626C37.1958 37.9653 37.2865 37.7768 37.3723 37.5905C37.4985 37.3163 37.6428 37.0504 37.7685 36.7758C37.9863 36.3003 38.2504 35.8512 38.5248 35.4071C38.6592 35.1895 38.797 34.9736 38.9226 34.7508C39.2054 34.2499 39.5632 33.8038 39.9526 33.3865C40.4062 32.9006 40.8847 32.4385 41.4261 32.0468C41.7003 31.8484 41.962 31.6319 42.2437 31.445C42.5263 31.2576 42.8266 31.0971 43.1187 30.9243C43.2016 30.8753 43.2808 30.8191 43.3666 30.7757C44.1271 30.3917 44.9066 30.0511 45.7122 29.7733C46.1733 29.6142 46.6461 29.4973 47.1286 29.4224C47.4765 29.3684 47.8134 29.2518 48.1688 29.2388C48.2041 29.2375 48.2381 29.2154 48.274 29.2094C48.4174 29.1846 48.5604 29.1504 48.7049 29.1413C49.5691 29.0869 50.4339 29.1191 51.2983 29.1396C51.4309 29.1427 51.5648 29.1649 51.6945 29.1947C52.0967 29.2875 52.5105 29.3107 52.9118 29.4138C53.241 29.4983 53.5843 29.5296 53.9112 29.6215C54.4028 29.7599 54.895 29.9059 55.3697 30.093C56.1706 30.4087 56.9815 30.7078 57.7169 31.1688C57.7579 31.1944 57.8042 31.2115 57.8475 31.2336C58.5707 31.6017 59.2508 32.0378 59.9164 32.5016C60.2145 32.7094 60.5 32.9339 60.7991 33.1391C61.3003 33.483 61.7654 33.8714 62.2181 34.2739C62.6911 34.6944 63.1314 35.1524 63.6104 35.5658C63.9804 35.8852 64.2884 36.2606 64.6204 36.6124C65.2948 37.3267 65.879 38.1181 66.459 38.9106C66.502 38.9694 66.5406 39.032 66.5768 39.0953C66.878 39.6228 67.2515 40.1051 67.5239 40.6519C67.81 41.2266 68.1344 41.7819 68.3742 42.3801C68.4867 42.661 68.6239 42.9319 68.7464 43.2088C68.854 43.452 68.9796 43.6905 69.055 43.9436C69.128 44.1885 69.2196 44.4241 69.3134 44.66C69.4252 44.9408 69.5562 45.2149 69.6489 45.5017C69.8466 46.113 70.0857 46.7088 70.3385 47.2974C70.6591 48.0434 70.9521 48.8055 71.414 49.4831C71.4207 49.4932 71.4255 49.5045 71.4312 49.5153C71.6516 49.9361 71.8967 50.3391 72.1869 50.7182C72.4964 51.1221 72.7759 51.5485 73.1501 51.8999C73.2377 51.9823 73.3056 52.0855 73.3842 52.1778C73.4391 52.2422 73.4925 52.3088 73.554 52.3663C73.7852 52.5819 74.0195 52.7942 74.2531 53.0074C74.3322 53.0797 74.4032 53.1654 74.53 53.1837C74.6439 53.0642 74.6291 52.9152 74.626 52.7732C74.5964 51.4197 74.5415 50.0682 74.3017 48.7316C74.2909 48.6717 74.2869 48.6104 74.2825 48.5497C74.2534 48.149 74.1023 47.7669 74.1036 47.3616C74.1036 47.338 74.0956 47.3131 74.0868 47.2906C73.9661 46.9837 73.9719 46.6488 73.862 46.3356C73.7627 46.0528 73.7305 45.7464 73.6677 45.4505C73.6602 45.415 73.6462 45.3808 73.6374 45.3454C73.5602 45.0398 73.4859 44.7332 73.4058 44.4283C73.3413 44.1827 73.2842 43.9336 73.1979 43.6955C73.0535 43.2976 72.8966 42.9048 72.7945 42.4924C72.7479 42.3041 72.6952 42.1143 72.6179 41.9373C72.3797 41.3926 72.1776 40.8333 71.9576 40.2819C71.6459 39.5003 71.2521 38.7594 70.9066 37.9953C70.7767 37.7083 70.5987 37.4433 70.4473 37.1658C70.192 36.698 69.9571 36.2181 69.6827 35.762C69.2774 35.0883 68.856 34.4236 68.4201 33.7691C68.139 33.3468 67.8143 32.9537 67.5195 32.5402C67.3221 32.2635 67.0917 32.0111 66.898 31.7362C66.5808 31.286 66.2095 30.8848 65.8561 30.4677C65.5106 30.0595 65.1307 29.6806 64.7814 29.2756C64.3363 28.7597 63.8253 28.3103 63.3412 27.835C62.8568 27.3595 62.3374 26.9184 61.8183 26.4803C61.2428 25.9947 60.6744 25.4991 60.0439 25.0827C59.9427 25.0159 59.8524 24.9326 59.756 24.8585C59.6126 24.7481 59.4741 24.6297 59.323 24.5307C58.6565 24.0945 57.9867 23.6633 57.3169 23.2323C57.0733 23.0754 56.8296 22.9186 56.5802 22.7718C56.4137 22.6739 56.2352 22.5968 56.0649 22.5053C55.7774 22.351 55.4952 22.1868 55.2051 22.0377C54.9462 21.9046 54.6754 21.7952 54.4182 21.6594C53.8265 21.3468 53.2227 21.062 52.5981 20.8209C52.3722 20.7338 52.1538 20.6273 51.9277 20.5411C51.5877 20.4115 51.2596 20.2539 50.9022 20.1646C50.5744 20.0826 50.2583 19.9532 49.9373 19.8436C49.8468 19.8126 49.7575 19.7784 49.6679 19.7451C49.4526 19.6653 49.2335 19.6033 49.0078 19.5548C48.7243 19.4938 48.4488 19.3953 48.1681 19.3203C47.9453 19.2608 47.7221 19.1957 47.4948 19.1629C47.1705 19.116 46.8546 19.0298 46.5301 18.9804C46.2704 18.9409 46.0149 18.8512 45.7464 18.8371C45.7109 18.8353 45.6728 18.8237 45.6419 18.8064C45.5091 18.7313 45.3628 18.7277 45.2168 18.7161C45.1077 18.7073 44.9921 18.7108 44.8918 18.6746C44.6572 18.5898 44.4144 18.5851 44.1719 18.5648C43.9776 18.5485 43.7841 18.5247 43.5904 18.504C43.3969 18.4833 43.2039 18.4511 43.0099 18.4429C41.6697 18.3863 40.3292 18.4066 38.9883 18.4167C38.3028 18.4218 37.6315 18.5487 36.9525 18.607C36.6659 18.6318 36.3824 18.7245 36.0898 18.7418C36.0541 18.7438 36.0193 18.7602 35.9837 18.7685C35.8425 18.8007 35.7013 18.8334 35.5595 18.8636C35.4763 18.8814 35.3799 18.8737 35.3111 18.9142C35.1659 18.9998 35.0091 18.9991 34.8528 19.0174C34.7684 19.0273 34.6841 19.0421 34.6016 19.062C34.2956 19.1364 33.9909 19.2149 33.6851 19.2897C33.4025 19.3589 33.1175 19.4188 32.8367 19.4947C32.6275 19.5515 32.4223 19.6243 32.2172 19.6953C31.8748 19.8139 31.5302 19.9274 31.1933 20.0606C30.8666 20.1899 30.5199 20.2634 30.2091 20.4386C29.9876 20.5634 29.7509 20.6611 29.5199 20.7688C29.2115 20.9123 28.8938 21.038 28.5948 21.1987C27.8145 21.6184 27.043 22.0545 26.3379 22.5968C26.309 22.619 26.2781 22.6386 26.2477 22.6587C25.7719 22.9739 25.3503 23.3577 24.9156 23.7237C24.6295 23.9648 24.3676 24.2345 24.0958 24.4924C23.5421 25.0177 23.0188 25.5723 22.5347 26.1622C22.1736 26.6022 21.8114 27.0403 21.474 27.5008C21.1517 27.9406 20.8212 28.3735 20.5309 28.8354C20.3242 29.1641 20.1219 29.4958 19.9211 29.8282C19.821 29.9938 19.7296 30.1649 19.6323 30.3324C19.5169 30.531 19.3927 30.7246 19.2846 30.927C19.1993 31.0866 19.1273 31.2541 19.0591 31.4221C18.9226 31.7578 18.7009 32.051 18.58 32.3944C18.544 32.497 18.497 32.5957 18.4556 32.6965C18.3314 32.9987 18.2054 33.3002 18.0838 33.6034C17.9583 33.9168 17.8281 34.2288 17.7165 34.5471C17.5883 34.9137 17.4553 35.2814 17.3681 35.6588C17.305 35.9321 17.2088 36.1927 17.1362 36.4614C17.0666 36.7189 16.9907 36.9749 16.9088 37.2288C16.7961 37.5784 16.7511 37.9415 16.6849 38.3001C16.5547 39.0071 16.4098 39.713 16.3235 40.4257C16.2399 41.1143 16.1439 41.8039 16.14 42.5012C16.1378 42.879 16.1038 43.2564 16.0925 43.6343C16.08 44.0485 16.061 44.4636 16.0733 44.8774C16.096 45.6454 16.1278 46.4134 16.1779 47.1799C16.2119 47.7024 16.2694 48.2246 16.3416 48.7435C16.434 49.4071 16.5514 50.0673 16.6586 50.729C16.7092 51.0417 16.7508 51.3564 16.8164 51.666C16.8768 51.9508 16.9628 52.2301 17.0398 52.5114C17.091 52.6983 17.1528 52.8824 17.1982 53.0706C17.2693 53.3656 17.3178 53.6665 17.399 53.9584C17.5062 54.3443 17.6344 54.7242 17.7564 55.1056C17.8116 55.2784 17.8917 55.445 17.9289 55.6212C17.9892 55.9078 18.0975 56.1762 18.1981 56.4483C18.2694 56.6414 18.3271 56.8394 18.3999 57.032C18.5281 57.3715 18.6611 57.7094 18.7957 58.0463C18.9213 58.3609 19.0519 58.6735 19.1798 58.9871C19.2667 59.2003 19.3453 59.4174 19.4408 59.6266C19.5805 59.9328 19.7289 60.2351 19.8794 60.536C20.1565 61.0904 20.4353 61.6439 20.7184 62.1951C20.9684 62.682 21.2534 63.1507 21.512 63.6315C21.8052 64.1764 22.1608 64.6803 22.4633 65.2184C22.8065 65.8287 23.27 66.3654 23.6295 66.969C23.6541 67.0102 23.6943 67.0417 23.7243 67.0799C24.0839 67.5375 24.438 67.9996 24.804 68.4519C25.0866 68.8009 25.3749 69.1463 25.6774 69.4779C26.0364 69.8714 26.4081 70.2536 26.7843 70.6306C27.0838 70.9308 27.4137 71.2015 27.7155 71.4965C28.0651 71.8384 28.4493 72.134 28.8195 72.4473C29.5682 73.0815 30.3772 73.6372 31.1833 74.1947C31.4915 74.4079 31.8227 74.5878 32.1351 74.7954C32.6306 75.1243 33.1556 75.4019 33.6785 75.6808C34.225 75.9726 34.7725 76.2649 35.3499 76.496C35.7208 76.6445 36.0594 76.8667 36.4411 76.9939C36.5679 77.0361 36.6904 77.0903 36.815 77.1386C37.2318 77.3006 37.641 77.488 38.0677 77.6167C38.4502 77.732 38.8138 77.8987 39.2005 77.9994C39.4465 78.0635 39.6844 78.174 39.9336 78.2062C40.2147 78.2428 40.4752 78.3453 40.7374 78.4266C41.0032 78.5091 41.275 78.5728 41.5421 78.6442C41.8914 78.7377 42.244 78.8472 42.6144 78.8431C42.662 78.8426 42.7095 78.8625 42.7575 78.871C42.9729 78.9081 43.1884 78.9453 43.4042 78.981C43.4761 78.9929 43.5544 78.9865 43.6202 79.0124C43.8288 79.0946 44.0466 79.1085 44.2657 79.1239C44.3382 79.129 44.415 79.134 44.4806 79.1611C44.6888 79.2469 44.9072 79.2564 45.1265 79.267C45.3092 79.2758 45.4885 79.2927 45.6655 79.3521C45.7776 79.3898 45.9035 79.3937 46.0238 79.3992C46.4742 79.4199 46.925 79.4303 47.3753 79.453C48.0446 79.4867 48.7131 79.5421 49.3844 79.5061C50.0293 79.4715 50.6754 79.4526 51.3192 79.4043C51.8279 79.3661 52.3338 79.2939 52.841 79.2363C52.8651 79.2335 52.8909 79.2308 52.9121 79.2204C53.1042 79.1259 53.3127 79.127 53.5188 79.1082C53.6268 79.0983 53.7328 79.0668 53.8397 79.0437C53.9346 79.0234 54.0282 78.9962 54.1239 78.981C54.5321 78.9165 54.9424 78.864 55.3488 78.7897C55.5866 78.7463 55.82 78.6753 56.0527 78.607C56.2844 78.539 56.513 78.4597 56.7422 78.3834C56.8796 78.3376 57.0122 78.2684 57.1528 78.2447C57.3336 78.2139 57.5044 78.1621 57.6791 78.1105C57.9476 78.0314 58.2066 77.9344 58.4636 77.8261C58.7301 77.7139 59.0073 77.6304 59.2753 77.518C60.0245 77.2038 60.7693 76.8853 61.4867 76.499C61.9474 76.2508 62.4085 76.0051 62.8548 75.7321C63.7245 75.2002 64.5491 74.6059 65.3451 73.9688C65.7521 73.643 66.144 73.3004 66.523 72.9451C67.2684 72.2467 67.9733 71.5086 68.6318 70.7258C69.1863 70.0663 69.7041 69.3787 70.1764 68.6607C70.5762 68.0529 70.9861 67.448 71.311 66.7927C71.3918 66.6297 71.5078 66.4838 71.5861 66.3196C71.8988 65.6635 72.203 65.0035 72.5306 64.3014V64.3019ZM49.9606 31.374C49.9606 31.3652 49.9606 31.3564 49.9606 31.3476C49.5951 31.3579 49.2297 31.372 48.864 31.3769C48.6334 31.38 48.4027 31.3561 48.1889 31.4831C48.1313 31.5173 48.0461 31.5041 47.974 31.5149C47.8778 31.5294 47.7797 31.5378 47.6865 31.5632C47.3949 31.6427 47.1056 31.7305 46.8144 31.812C46.5693 31.8804 46.3183 31.9309 46.078 32.0131C45.5865 32.1813 45.1261 32.4222 44.6597 32.6482C44.0034 32.9661 43.3887 33.3574 42.8112 33.7965C42.311 34.1769 41.8581 34.62 41.429 35.0819C41.2895 35.2322 41.174 35.4066 41.059 35.5777C40.7952 35.97 40.5359 36.3653 40.2807 36.7634C40.2154 36.8651 40.1699 36.9804 40.1212 37.0921C40.0241 37.3146 39.935 37.5407 39.8352 37.762C39.7545 37.9406 39.691 38.1205 39.6597 38.3165C39.6332 38.4825 39.5754 38.6456 39.5153 38.8037C39.4062 39.0896 39.3003 39.3746 39.2932 39.6857C39.2917 39.7463 39.2892 39.81 39.2698 39.8666C39.1328 40.269 39.1502 40.6836 39.1646 41.0985C39.1675 41.1836 39.1738 41.2715 39.1569 41.3538C39.0852 41.7074 39.1279 42.0629 39.1717 42.4099C39.2696 43.1835 39.4004 43.9532 39.582 44.7129C39.6274 44.9025 39.653 45.098 39.7132 45.2825C39.8562 45.7205 40.012 46.1544 40.1673 46.5884C40.4331 47.3313 40.7563 48.048 41.1289 48.7442C41.5073 49.4514 41.9552 50.1081 42.4511 50.7372C42.9788 51.4063 43.5518 52.0336 44.1768 52.6088C44.8642 53.2415 45.5781 53.8455 46.3626 54.3593C46.615 54.5245 46.8628 54.6969 47.1136 54.8648C47.2643 54.9656 47.4214 55.0573 47.5668 55.1651C47.7428 55.2956 47.9156 55.4247 48.1395 55.4633C48.197 55.4732 48.2516 55.5063 48.3045 55.5343C48.6892 55.7382 49.0539 55.9809 49.4808 56.1006C49.6183 56.1392 49.7491 56.2109 49.874 56.283C50.1376 56.435 50.4151 56.5548 50.7019 56.6506C51.2201 56.8235 51.7413 56.9866 52.263 57.1488C52.4485 57.2064 52.6411 57.2412 52.8262 57.2998C53.3732 57.4727 53.9326 57.5926 54.4957 57.6964C55.336 57.8514 56.1904 57.8816 57.0383 57.9643C57.5461 58.0139 58.0612 57.9958 58.5729 57.9976C60.0722 58.0033 61.5713 58.0088 63.0706 58.0048C63.9142 58.0024 64.7459 58.1422 65.5851 58.1891C65.6094 58.1904 65.6335 58.1947 65.6577 58.1984C66.2691 58.2907 66.8724 58.4354 67.4906 58.485C67.5508 58.4898 67.6109 58.5044 67.6695 58.5205C68.0664 58.6296 68.4732 58.701 68.8531 58.8743C69.0491 58.9636 69.2692 58.9991 69.4751 59.0683C69.6701 59.1339 69.8627 59.208 70.0537 59.2848C70.4797 59.4567 70.9197 59.6024 71.3251 59.8142C71.9248 60.1275 72.5648 60.3693 73.1117 60.7811C73.1792 60.832 73.2498 60.8827 73.3264 60.9167C73.8077 61.131 74.196 61.4907 74.6454 61.7553C74.9064 61.9091 75.1475 62.0974 75.3937 62.2757C75.9159 62.6536 76.4371 63.0327 76.9553 63.4159C77.383 63.7322 77.8073 64.053 78.2302 64.3757C78.596 64.6546 78.9558 64.9416 79.3216 65.2204C79.9974 65.7356 80.6758 66.2473 81.3535 66.7605C81.6054 66.9512 81.8593 67.1392 82.1091 67.3323C82.5698 67.6885 83.0227 68.0549 83.4895 68.403C83.7792 68.6192 84.0472 68.8661 84.3662 69.0421C84.6791 69.3886 85.1004 69.5974 85.4512 69.8961C85.5988 70.0219 85.7535 70.1395 85.9068 70.2583C86.2514 70.5252 86.5956 70.7926 86.943 71.0558C87.127 71.1951 87.3196 71.3228 87.5038 71.4619C87.8041 71.689 88.0997 71.9226 88.3987 72.1514C88.7262 72.4017 89.055 72.6501 89.3837 72.8985C89.77 73.1904 90.1494 73.4924 90.5459 73.77C90.9724 74.0686 91.3763 74.3969 91.8085 74.689C92.3402 75.0485 92.8441 75.4495 93.3594 75.8335C93.6811 76.0732 94.0041 76.3117 94.322 76.5564C94.6101 76.7782 94.89 77.0109 95.1777 77.2332C95.9338 77.8175 96.6921 78.3989 97.4497 78.9813C97.545 79.0545 97.6414 79.1261 97.736 79.2004C98.3566 79.688 98.9768 80.1759 99.5969 80.6641C99.9309 80.9269 100.263 81.1912 100.598 81.4525C101.019 81.7805 101.443 82.103 101.861 82.4336C102.231 82.726 102.589 83.033 102.978 83.3017C103.207 83.46 103.413 83.6507 103.638 83.8165C104.33 84.3282 105.024 84.8385 105.722 85.342C105.959 85.5126 106.219 85.651 106.454 85.8228C106.946 86.1819 107.477 86.4715 108.016 86.7478C108.263 86.8741 108.516 86.986 108.763 87.1135C109.03 87.2519 109.323 87.3438 109.611 87.4368C109.852 87.5145 110.119 87.5284 110.343 87.6359C110.627 87.7719 110.944 87.7296 111.221 87.8597C111.875 87.9428 112.503 87.8583 113.095 87.559C113.344 87.4331 113.582 87.2905 113.734 87.041C113.758 87.001 113.8 86.9713 113.833 86.9365C114.118 86.6384 114.206 86.2577 114.244 85.8699C114.283 85.4643 114.173 85.0765 114.031 84.6967C113.928 84.4207 113.746 84.1917 113.614 83.9347C113.348 83.4203 112.961 82.9955 112.582 82.5739C111.973 81.8975 111.295 81.2882 110.594 80.7065C109.829 80.0718 109.023 79.4912 108.218 78.9098C108.188 78.8885 108.163 78.86 108.133 78.8402C107.707 78.5628 107.278 78.2889 106.854 78.0086C106.044 77.4736 105.24 76.9311 104.428 76.3992C103.768 75.9667 103.1 75.5476 102.438 75.1184C102.154 74.9345 101.881 74.734 101.597 74.5517C101.139 74.2587 100.671 73.9803 100.215 73.6849C99.7469 73.382 99.2892 73.0632 98.8234 72.757C98.6308 72.6303 98.416 72.5348 98.2333 72.3961C97.9996 72.2189 97.7618 72.0538 97.5044 71.9123C97.3243 71.8133 97.1629 71.6804 96.9923 71.5639C96.8418 71.4612 96.6925 71.3563 96.5383 71.2593C96.2614 71.0851 95.972 70.9291 95.7039 70.7424C95.0376 70.2786 94.3517 69.8454 93.6714 69.4029C92.942 68.9283 92.2237 68.4363 91.5012 67.9511C91.4006 67.8836 91.3061 67.8065 91.2045 67.7404C90.7257 67.4284 90.2315 67.1379 89.7691 66.8034C89.0616 66.2914 88.3007 65.8615 87.6007 65.3373C87.0686 64.9389 86.495 64.5966 85.9436 64.2236C85.5615 63.9652 85.1878 63.6947 84.8068 63.4346C84.3248 63.1057 83.8383 62.7837 83.356 62.4556C83.035 62.237 82.7259 62 82.3974 61.7934C81.8852 61.4711 81.4239 61.0776 80.9047 60.7642C80.5538 60.5525 80.2372 60.2838 79.9043 60.0422C79.5127 59.7578 79.1206 59.4741 78.7273 59.1921C78.2245 58.8315 77.7175 58.4766 77.2174 58.1122C76.756 57.7758 76.3111 57.4156 75.8409 57.0922C75.2629 56.6943 74.7218 56.2477 74.1495 55.8423C73.815 55.6053 73.5218 55.3105 73.1955 55.0606C72.4287 54.4735 71.814 53.7342 71.1511 53.0431C71.1259 53.017 71.1056 52.986 71.0836 52.9567C70.7848 52.5587 70.4563 52.1857 70.1828 51.7649C69.952 51.4096 69.7376 51.0438 69.5013 50.6925C69.2763 50.3585 69.1333 49.9833 68.9363 49.6356C68.8181 49.4269 68.7044 49.2124 68.6188 48.9891C68.4282 48.4918 68.2006 48.0105 68.008 47.5137C67.8072 46.9954 67.5981 46.4806 67.4205 45.9536C67.3739 45.8153 67.3315 45.6752 67.2764 45.5402C67.1347 45.1917 66.9836 44.8471 66.8427 44.4984C66.7015 44.1486 66.583 43.7906 66.4087 43.4531C66.1971 43.0432 66.0112 42.6196 65.8067 42.2058C65.7208 42.0318 65.609 41.8707 65.5196 41.6981C65.2348 41.149 64.9019 40.6294 64.5469 40.1246C64.254 39.7083 63.9663 39.2878 63.6258 38.9064C63.424 38.6806 63.2468 38.4326 63.0443 38.2074C62.5252 37.6304 61.982 37.076 61.4031 36.5587C60.9869 36.1868 60.5624 35.8241 60.1313 35.4697C59.7373 35.146 59.3463 34.8141 58.9239 34.5308C58.401 34.1801 57.8982 33.7974 57.335 33.5062C56.7876 33.2233 56.2621 32.8973 55.6878 32.6669C55.5314 32.6041 55.3722 32.5459 55.2228 32.4692C54.6241 32.1623 53.9794 31.9924 53.3354 31.8189C53.1722 31.775 53.0136 31.7051 52.8479 31.6811C52.5235 31.6341 52.2195 31.4827 51.8838 31.4963C51.8485 31.4977 51.8105 31.4875 51.777 31.4741C51.557 31.3863 51.3254 31.3766 51.0935 31.3747C50.7158 31.372 50.3379 31.374 49.9602 31.374H49.9606ZM81.8755 126.444C81.8797 126.444 81.8839 126.444 81.8882 126.444C81.879 126.213 81.8735 125.981 81.8589 125.75C81.8519 125.641 81.8371 125.531 81.8082 125.426C81.721 125.11 81.706 124.781 81.599 124.467C81.5095 124.204 81.4918 123.918 81.4091 123.653C81.254 123.154 81.089 122.658 80.9019 122.171C80.7146 121.684 80.4988 121.207 80.2883 120.728C80.1707 120.461 80.0399 120.2 79.9122 119.938C79.8169 119.742 79.7147 119.549 79.6199 119.353C79.5564 119.222 79.5094 119.082 79.4401 118.954C79.0878 118.304 78.7336 117.656 78.3734 117.011C78.2146 116.726 78.0244 116.459 77.8763 116.169C77.5558 115.543 77.1843 114.948 76.8251 114.345C76.5827 113.938 76.3312 113.537 76.0889 113.13C75.7653 112.586 75.4522 112.037 75.1242 111.496C74.6973 110.792 74.2675 110.09 73.8247 109.396C73.5772 109.008 73.3713 108.596 73.1046 108.219C72.903 107.934 72.74 107.622 72.5579 107.322C72.306 106.909 72.0521 106.496 71.7993 106.083C71.6153 105.783 71.433 105.481 71.2471 105.182C70.9841 104.758 70.7184 104.337 70.4542 103.914C70.4414 103.893 70.4339 103.87 70.4226 103.848C70.3493 103.709 70.2816 103.566 70.2009 103.432C69.8408 102.829 69.4762 102.229 69.1146 101.627C68.8099 101.12 68.5066 100.611 68.2034 100.103C67.8118 99.4478 67.42 98.7922 67.0297 98.1359C66.8248 97.7916 66.6214 97.4466 66.4195 97.1005C65.9 96.2099 65.3842 95.3173 64.8624 94.4281C64.5202 93.8448 64.1699 93.2661 63.8233 92.6854C63.7928 92.6341 63.7615 92.5834 63.7322 92.5314C63.471 92.0666 63.2166 91.5978 62.9475 91.1375C62.6161 90.5705 62.2697 90.0123 61.9357 89.4467C61.8058 89.2269 61.6977 88.9945 61.5704 88.7734C61.2258 88.1751 60.8763 87.5795 60.5284 86.983C60.3334 86.6486 60.1174 86.3245 59.9495 85.9769C59.8189 85.7066 59.632 85.5013 59.4262 85.2921C59.1474 85.0087 58.8012 84.8638 58.4396 84.7754C57.9988 84.6676 57.5364 84.6833 57.0967 84.7875C56.6983 84.8819 56.3029 85.0069 55.9403 85.2161C55.5202 85.4584 55.0981 85.6821 54.7729 86.0681C54.5188 86.3697 54.3024 86.6721 54.1696 87.0486C53.8702 87.8985 53.9271 88.7205 54.2878 89.5346C54.5085 90.033 54.788 90.5013 55.0028 91.0052C55.1906 91.4459 55.4555 91.8544 55.6497 92.2977C55.8191 92.6843 56.0278 93.0534 56.2151 93.4321C56.5326 94.074 56.8496 94.7162 57.162 95.3607C57.3319 95.7112 57.4727 96.0768 57.6613 96.4165C57.8506 96.7575 58.0127 97.1091 58.1762 97.462C58.4109 97.9682 58.6638 98.4661 58.9067 98.9685C59.0757 99.3179 59.2396 99.6696 59.4088 100.019C59.514 100.236 59.6279 100.449 59.7324 100.666C59.9208 101.059 60.0947 101.457 60.3032 101.841C60.5626 102.318 60.7879 102.815 61.0241 103.305C61.3716 104.026 61.7034 104.755 62.0729 105.465C62.2969 105.897 62.4919 106.343 62.7034 106.781C62.8299 107.043 62.9556 107.306 63.0948 107.561C63.3721 108.07 63.5407 108.629 63.8591 109.121C64.0479 109.413 64.1507 109.76 64.306 110.075C64.439 110.345 64.6253 110.592 64.7291 110.872C64.9535 111.476 65.301 112.019 65.5571 112.608C65.7985 113.164 66.1042 113.691 66.3743 114.234C66.515 114.517 66.6221 114.817 66.7758 115.092C67.0551 115.591 67.311 116.101 67.5526 116.619C67.6603 116.85 67.7886 117.071 67.9005 117.3C68.1183 117.747 68.3117 118.207 68.5515 118.641C68.7733 119.043 68.9913 119.445 69.1915 119.858C69.4122 120.314 69.6537 120.76 69.8889 121.209C70.283 121.962 70.6768 122.714 71.0761 123.464C71.2071 123.71 71.3576 123.945 71.4943 124.188C71.7803 124.697 72.0722 125.204 72.3446 125.72C72.6676 126.332 73.0521 126.906 73.429 127.485C73.5148 127.617 73.6045 127.75 73.7118 127.863C74.085 128.259 74.4458 128.666 74.8566 129.026C75.4661 129.56 76.1549 129.956 76.9111 130.236C77.137 130.319 77.3758 130.386 77.6142 130.413C77.9031 130.446 78.1978 130.433 78.4899 130.43C78.6843 130.427 78.8698 130.384 79.0591 130.323C79.304 130.244 79.5224 130.114 79.7558 130.024C80.1182 129.884 80.4093 129.657 80.6972 129.415C81.055 129.115 81.327 128.747 81.522 128.323C81.5673 128.224 81.5843 128.113 81.6259 128.012C81.7705 127.662 81.8702 127.302 81.8757 126.92C81.8781 126.761 81.8761 126.603 81.8761 126.444H81.8755ZM20.5479 28.3305L20.5604 28.3101L20.5408 28.3072L20.5479 28.3305ZM12.6553 67.435C12.6535 67.4494 12.6516 67.4637 12.65 67.4782C12.656 67.4718 12.6661 67.4657 12.667 67.4586C12.6679 67.4513 12.6599 67.4428 12.6555 67.435H12.6553ZM8.66387 71.4663L8.6668 71.4405L8.63607 71.4507L8.66387 71.4665V71.4663Z" fill="white"/>
	<path d="M77.1694 4.33471C77.4544 4.30397 77.7619 4.39731 78.075 4.43941C78.1109 4.44416 78.1524 4.44874 78.1796 4.46906C78.5449 4.74323 78.9513 4.98208 79.0435 5.48997C79.0803 5.69222 79.1789 5.88091 79.1615 6.09579C79.1469 6.27735 79.1631 6.46166 79.0768 6.63242C79.0554 6.67451 79.0479 6.72558 79.0422 6.77353C78.9906 7.21481 78.8114 7.6063 78.5972 7.9901C78.3658 8.40447 78.0668 8.76961 77.7957 9.15506C77.1329 10.098 76.429 11.0108 75.7097 11.9101C75.248 12.4872 74.7679 13.0508 74.2702 13.5995C73.9545 13.9478 73.5993 14.2604 73.3192 14.644C73.1998 14.8076 73.018 14.9242 72.8731 15.0706C72.429 15.5203 71.9946 15.9797 71.5448 16.4236C71.346 16.6196 71.1271 16.7977 70.903 16.9648C70.6744 17.1353 70.4092 17.2312 70.1195 17.2237C69.7696 17.2146 69.4754 17.0773 69.2958 16.7698C69.1643 16.5449 69.1506 16.2888 69.1683 16.0275C69.1972 15.6009 69.4045 15.243 69.5806 14.8719C69.8608 14.2814 70.1921 13.7162 70.4372 13.108C70.5047 12.9406 70.6232 12.7947 70.7079 12.6333C71.0755 11.9338 71.4322 11.2284 71.807 10.5327C72.0253 10.1273 72.2728 9.73781 72.5027 9.33845C72.6174 9.13932 72.7151 8.92994 72.8338 8.73319C72.9584 8.52692 73.1087 8.33584 73.2307 8.12829C73.5621 7.5642 73.9102 7.01128 74.285 6.4752C74.542 6.1075 74.7964 5.73962 75.1254 5.42701C75.4598 5.10946 75.8051 4.8115 76.2077 4.58363C76.6129 4.3543 76.6922 4.33124 77.1694 4.33435V4.33471Z" fill="white"/>
	<path d="M86.3399 17.8536C86.6717 17.8256 86.981 17.8752 87.2766 18.0008C87.3651 18.0383 87.448 18.0901 87.531 18.1395C87.6139 18.1887 87.6909 18.2484 87.7756 18.2941C88.1244 18.483 88.3274 18.7923 88.4788 19.1432C88.507 19.2087 88.5222 19.2821 88.5302 19.3533C88.544 19.4743 88.5454 19.5966 88.5551 19.7181C88.5985 20.26 88.4461 20.7458 88.1564 21.2008C87.9621 21.5059 87.7066 21.7477 87.4046 21.9279C86.9578 22.1946 86.5038 22.4562 86.0297 22.6681C85.5986 22.8608 85.1735 23.0634 84.7508 23.2728C84.6105 23.3424 84.4574 23.3859 84.31 23.441C83.9813 23.5636 83.6519 23.6844 83.3242 23.8094C83.1326 23.8825 82.9461 23.9685 82.7533 24.0377C82.367 24.1764 81.9778 24.3064 81.5904 24.442C81.3846 24.5139 81.1688 24.5443 80.9643 24.6303C80.62 24.7753 80.2626 24.89 79.9085 25.0106C79.7022 25.0809 79.4908 25.1353 79.2828 25.2012C78.8199 25.3481 78.3597 25.5044 77.8945 25.6443C77.5904 25.7356 77.2792 25.7839 76.9573 25.736C76.2359 25.6285 75.8227 24.7511 76.2197 24.1383C76.4044 23.853 76.6391 23.6101 76.9074 23.3929C77.3875 23.0039 77.9095 22.676 78.4145 22.3246C79.1714 21.7978 79.9576 21.3132 80.7303 20.8091C80.9846 20.6433 81.2341 20.4703 81.4885 20.3051C81.7318 20.1473 81.9994 20.0281 82.2088 19.8166C82.2829 19.7417 82.3895 19.6956 82.4868 19.6474C82.9867 19.3998 83.4361 19.0678 83.921 18.7953C84.3848 18.5346 84.8432 18.2614 85.323 18.0333C85.6394 17.8831 85.9898 17.8073 86.3396 17.8536H86.3399Z" fill="white"/>
	<path d="M57.9105 10.2736C57.9586 9.63004 58.0076 8.98652 58.0543 8.34282C58.0693 8.13619 58.0779 7.92918 58.0898 7.72236C58.1207 7.18738 58.1512 6.65221 58.1834 6.11723C58.1966 5.89833 58.214 5.6798 58.2291 5.4609C58.2602 5.01139 58.2687 4.5606 58.3552 4.11548C58.3897 3.9374 58.3857 3.75162 58.3976 3.56915C58.4159 3.29003 58.4124 3.00872 58.5055 2.73839C58.5288 2.67104 58.5287 2.59417 58.5317 2.52133C58.5584 1.84907 58.8293 1.27474 59.2712 0.786244C59.5395 0.489742 59.876 0.266085 60.2596 0.137052C60.4288 0.080131 60.5877 -0.00680619 60.7835 0.000148785C61.1595 0.0135097 61.4966 0.11454 61.7944 0.344603C62.0834 0.567894 62.3528 0.80418 62.5447 1.1274C62.7695 1.50608 62.8871 1.90599 62.8726 2.34214C62.8609 2.69502 62.8269 3.04496 62.7503 3.39308C62.6063 4.04666 62.4878 4.70592 62.3532 5.3617C62.3067 5.5881 62.2527 5.81359 62.1871 6.03505C62.0314 6.55887 61.8516 7.07482 61.7082 7.6034C61.5689 8.11752 61.4123 8.62852 61.2096 9.12434C61.0863 9.42615 61.0051 9.74498 60.9029 10.0556C60.7855 10.4123 60.6679 10.7692 60.5462 11.1244C60.4255 11.4773 60.3178 11.8357 60.1548 12.1724C60.0655 12.3571 59.9765 12.5429 59.8702 12.7179C59.7169 12.9703 59.4672 13.1008 59.1962 13.1831C59.0566 13.2256 58.9059 13.2247 58.768 13.1551C58.6175 13.0792 58.4488 13.0372 58.3254 12.9097C58.2233 12.8041 58.1441 12.6928 58.0872 12.5511C57.9242 12.1457 57.886 11.7262 57.8974 11.298C57.9063 10.9568 57.9248 10.616 57.9391 10.2752C57.9297 10.2745 57.9202 10.2737 57.9109 10.2732L57.9105 10.2736Z" fill="white"/>
	<path d="M20.5481 28.3301L20.541 28.3069L20.5606 28.3098L20.5481 28.3301Z" fill="white"/>
	<path d="M12.655 67.4348C12.6591 67.4426 12.667 67.4509 12.6661 67.4581C12.6652 67.4651 12.6553 67.4709 12.6494 67.4774C12.6512 67.4631 12.653 67.4491 12.6548 67.435L12.655 67.4348Z" fill="white"/>
	<path d="M8.66306 71.4657L8.63574 71.4503L8.66576 71.4404L8.66306 71.4657Z" fill="white"/>
	<path d="M64.5229 44.6421C64.6967 44.5918 64.8068 44.6487 64.9304 44.7571C65.2054 44.9976 65.3447 45.3171 65.498 45.6301C65.6592 45.9594 65.7491 46.3086 65.8102 46.6719C65.8854 47.1188 65.9478 47.5643 65.924 48.0171C65.89 48.6632 65.7643 49.2877 65.5536 49.9049C65.3694 50.4442 65.053 50.895 64.7521 51.3616C64.7389 51.3819 64.7278 51.4046 64.7108 51.4209C64.4211 51.6947 64.1538 51.9996 63.8346 52.2331C63.4151 52.5399 62.979 52.8294 62.5064 53.0571C62.1215 53.2423 61.7341 53.4166 61.3208 53.5299C61.1805 53.5683 61.0453 53.6261 60.9078 53.6748C59.8842 54.037 58.8224 54.1604 57.7449 54.1611C57.0018 54.1615 56.2572 54.1564 55.5158 54.1113C54.7985 54.0676 54.0897 53.9459 53.4038 53.7123C53.1161 53.6144 52.8189 53.5451 52.528 53.4561C51.6764 53.1953 50.8722 52.8225 50.0731 52.4335C49.5362 52.1724 49.0424 51.842 48.5494 51.5153C47.4759 50.8037 46.5001 49.9689 45.6193 49.0265C45.1966 48.5744 44.8137 48.0892 44.4223 47.6101C44.0426 47.1454 43.7163 46.6463 43.4196 46.134C43.0982 45.5792 42.8089 45.0014 42.598 44.3876C42.5 44.1022 42.3728 43.8253 42.2785 43.5363C42.1649 43.1887 42.0774 42.836 42.0198 42.4755C42.0083 42.4034 42.0072 42.3256 41.9779 42.2612C41.8949 42.078 41.8861 41.8841 41.8715 41.6896C41.8651 41.6047 41.8665 41.5144 41.8375 41.4366C41.701 41.0706 41.7369 40.6915 41.7398 40.3149C41.7414 40.0954 41.7539 39.8762 41.757 39.6567C41.7605 39.4135 41.7436 39.1688 41.8429 38.9363C41.8614 38.8929 41.8625 38.8408 41.8658 38.7923C41.89 38.424 41.9964 38.0777 42.1367 37.7392C42.1691 37.6608 42.1936 37.5775 42.2097 37.4941C42.3035 37.0052 42.5616 36.5885 42.8129 36.1752C43.182 35.5679 43.653 35.036 44.2041 34.5904C44.6455 34.2333 45.089 33.8621 45.6571 33.7056C46.0462 33.4794 46.4787 33.3593 46.8981 33.2105C47.1716 33.1135 47.4615 33.0632 47.7445 32.9933C47.8622 32.9642 47.9806 32.9375 48.0991 32.912C48.194 32.8917 48.2893 32.8732 48.385 32.8573C48.6005 32.8216 48.8161 32.7859 49.0323 32.7543C49.1404 32.7383 49.2498 32.7213 49.3588 32.7208C49.956 32.718 50.553 32.7204 51.1502 32.7211C51.1624 32.7211 51.1751 32.72 51.1866 32.7228C51.6247 32.826 52.079 32.8273 52.5158 32.9428C52.8209 33.0235 53.1302 33.0896 53.4395 33.1529C54.1259 33.2936 54.7551 33.5779 55.3399 33.9507C55.6142 34.1257 55.8423 34.3718 55.9511 34.7035C55.9438 34.8192 55.8798 34.9145 55.7831 34.9652C55.7009 35.0082 55.5976 35.0137 55.5023 35.0267C55.4555 35.0331 55.4057 35.0192 55.3574 35.013C54.228 34.8678 53.0936 34.8856 51.9627 34.9594C51.1231 35.0141 50.3079 35.2227 49.5006 35.4689C48.8516 35.6668 48.2743 35.9949 47.7053 36.343C47.4911 36.4741 47.3053 36.6584 47.1255 36.8372C46.9031 37.0585 46.6748 37.2814 46.4963 37.5367C46.3174 37.7926 46.1877 38.0849 46.0538 38.3693C45.9723 38.5426 45.9397 38.7394 45.8548 38.9107C45.7588 39.1045 45.7418 39.3064 45.7248 39.513C45.7167 39.61 45.7045 39.7072 45.6849 39.8026C45.6052 40.19 45.6057 40.5768 45.682 40.9646C45.703 41.072 45.7215 41.1813 45.7252 41.2904C45.7369 41.6367 45.8475 41.9542 45.9823 42.2681C46.097 42.5348 46.2174 42.8015 46.2997 43.0787C46.3847 43.365 46.549 43.6027 46.698 43.8509C46.9854 44.3292 47.3016 44.7878 47.6614 45.2148C47.95 45.5573 48.2542 45.8838 48.5844 46.1893C48.959 46.5357 49.3518 46.8549 49.7705 47.1443C50.3615 47.5524 50.9953 47.8811 51.6561 48.1601C52.1394 48.364 52.6402 48.5091 53.1428 48.6577C53.7056 48.8241 54.2744 48.9564 54.8513 49.0324C55.4661 49.1135 56.0891 49.14 56.7095 49.1689C57.4539 49.2035 58.1971 49.1404 58.9347 49.054C59.5378 48.9835 60.1381 48.8748 60.7181 48.6786C60.925 48.6087 61.1397 48.5626 61.3477 48.4961C61.8388 48.3393 62.2829 48.0885 62.7037 47.7948C62.833 47.7045 62.9558 47.6048 63.0827 47.5113C63.289 47.3593 63.4721 47.1886 63.6163 46.9717C63.7297 46.8009 63.8932 46.6627 64.0004 46.4889C64.2272 46.1212 64.3627 45.7191 64.3519 45.2794C64.3464 45.0563 64.3647 44.8415 64.5238 44.642L64.5229 44.6421Z" fill="white"/>
	<path d="M80.2173 124.046C80.1648 123.605 80.0383 123.194 79.8253 122.807C79.7611 122.69 79.6882 122.577 79.6342 122.456C79.3615 121.846 78.9448 121.349 78.4481 120.909C78.1702 120.663 77.8492 120.488 77.5128 120.361C77.2687 120.268 77.0111 120.185 76.7377 120.168C76.3746 120.147 76.0311 120.221 75.7075 120.36C74.9472 120.687 74.3643 121.212 73.9999 121.968C73.7912 122.4 73.6654 122.85 73.6798 123.334C73.6813 123.382 73.68 123.431 73.68 123.511C73.6947 123.831 73.7031 124.176 73.8203 124.52C73.9335 124.853 74.0607 125.179 74.2 125.498C74.3299 125.796 74.5139 126.072 74.6909 126.346C75.0052 126.834 75.4063 127.239 75.9183 127.517C76.4304 127.795 76.9793 127.955 77.5672 127.871C77.8898 127.826 78.2064 127.751 78.5185 127.634C79.2196 127.37 79.6988 126.885 80.0366 126.239C80.1266 126.067 80.1798 125.881 80.2096 125.685C80.2929 125.138 80.2824 124.594 80.2171 124.046L80.2173 124.046ZM77.118 125.763C77.1044 125.941 77.0667 126.098 76.8891 126.219C76.8262 126.191 76.7426 126.17 76.6784 126.123C76.3457 125.877 76.034 125.614 75.8623 125.218C75.7613 124.985 75.6262 124.767 75.5109 124.54C75.3719 124.267 75.2775 123.979 75.2805 123.668C75.2825 123.461 75.2885 123.255 75.2949 123.048C75.3009 122.857 75.3675 122.693 75.5411 122.556C75.7527 122.571 75.8884 122.693 76.0254 122.815C76.3677 123.119 76.6148 123.496 76.7792 123.915C77.0108 124.505 77.167 125.116 77.1178 125.763H77.118Z" fill="white"/>
	</g>
	<g clip-path="url(#clip1_785_3304)">
	<path d="M63.9346 186.984V178.002H68.1157V197.308H63.9424V193.922C63.9259 193.918 63.9094 193.914 63.8929 193.909C63.8599 193.984 63.826 194.058 63.793 194.132C62.9622 195.99 61.6009 197.23 59.5468 197.497C57.5482 197.756 55.6452 197.427 54.0338 196.097C52.9963 195.24 52.4086 194.099 52.1134 192.808C51.7088 191.036 51.7253 189.261 52.2419 187.517C52.9755 185.039 54.6711 183.662 57.2244 183.328C58.3956 183.175 59.5511 183.227 60.6624 183.673C62.1357 184.264 63.1445 185.327 63.7835 186.762C63.8182 186.839 63.8503 186.916 63.8833 186.994C63.8998 186.991 63.9172 186.987 63.9337 186.984H63.9346ZM60.0165 193.809C60.6112 193.738 61.2119 193.701 61.7988 193.59C63.062 193.351 63.7757 192.652 63.9754 191.386C64.0683 190.796 64.0622 190.174 63.9988 189.577C63.872 188.388 63.2157 187.595 62.0332 187.297C60.7353 186.97 59.4252 186.966 58.1238 187.269C57.0516 187.519 56.377 188.191 56.1609 189.284C56.0115 190.036 56.0089 190.792 56.1548 191.545C56.3493 192.544 56.9362 193.196 57.9085 193.502C58.5926 193.717 59.2993 193.757 60.0156 193.81L60.0165 193.809Z" fill="white"/>
	<path d="M23.8344 197.579C22.1692 197.561 20.4919 197.246 18.9743 196.331C17.1147 195.21 16.0485 193.561 15.7881 191.406C15.6066 189.903 15.7968 188.45 16.5061 187.094C17.2909 185.593 18.5124 184.558 20.0795 183.962C22.6901 182.97 25.325 182.967 27.9166 184.015C30.7382 185.158 32.2957 187.731 32.1316 190.834C31.9701 193.889 30.1504 196.184 27.1673 197.106C26.1082 197.433 25.0229 197.574 23.8344 197.579ZM23.6356 187.048C23.3239 187.09 22.7014 187.136 22.098 187.268C20.9902 187.512 20.267 188.184 20.0352 189.321C19.8894 190.036 19.8859 190.755 20.0222 191.473C20.2167 192.496 20.8114 193.181 21.8089 193.479C23.1494 193.88 24.509 193.867 25.8581 193.54C26.8886 193.291 27.5832 192.658 27.8211 191.595C27.9964 190.81 27.993 190.019 27.8141 189.234C27.5901 188.253 26.9737 187.635 26.0205 187.332C25.3433 187.117 24.6461 187.077 23.6347 187.048H23.6356Z" fill="white"/>
	<path d="M49.3099 197.308H45.1374V194.298C45.1227 194.295 45.1088 194.29 45.094 194.287C45.0471 194.402 45.0011 194.517 44.9542 194.633C44.2953 196.26 43.0859 197.195 41.3591 197.469C40.2695 197.642 39.1826 197.626 38.1051 197.373C36.3532 196.961 35.2532 195.87 34.7548 194.154C34.5065 193.3 34.431 192.424 34.4293 191.541C34.4249 188.941 34.4275 186.34 34.4275 183.739C34.4275 183.675 34.4275 183.611 34.4275 183.529H38.6321V183.805C38.6321 185.987 38.6217 188.169 38.6399 190.35C38.6443 190.895 38.692 191.45 38.804 191.982C39.0089 192.964 39.6488 193.528 40.6428 193.691C41.2992 193.797 41.9547 193.79 42.6075 193.671C43.9593 193.423 44.7971 192.588 45.0376 191.219C45.1036 190.844 45.127 190.458 45.1287 190.077C45.1374 187.982 45.1331 185.887 45.1331 183.792V183.524H49.3108V197.309L49.3099 197.308Z" fill="white"/>
	<path d="M0.433594 197.306V178H4.80402V193.312C4.92904 193.312 5.02801 193.312 5.12698 193.312C8.33144 193.312 10.3204 193.312 13.524 193.312C13.7283 193.312 13.8305 193.413 13.8305 193.613C13.8305 194.754 13.8305 195.896 13.8305 197.037C13.8305 197.122 13.8305 197.207 13.8305 197.305H0.433594V197.306Z" fill="white"/>
	<path d="M71.2197 183.524H75.3966V186.979C75.4096 186.983 75.4235 186.988 75.4365 186.993C75.4634 186.942 75.4938 186.893 75.5172 186.841C76.5625 184.494 78.377 183.3 80.9408 183.259C82.1493 183.24 83.3196 183.45 84.3961 184.033C85.7392 184.761 86.5891 185.899 87.0267 187.337C87.6535 189.394 87.6813 191.471 86.9998 193.517C86.2801 195.681 84.7312 196.946 82.5122 197.399C81.4556 197.614 80.3886 197.679 79.3277 197.425C77.659 197.024 76.4887 195.998 75.7143 194.493C75.6153 194.301 75.5311 194.102 75.4096 193.909V202.002H71.2197V183.524ZM79.3051 193.811C79.892 193.74 80.4858 193.705 81.064 193.591C82.138 193.379 82.8924 192.78 83.1425 191.67C83.3378 190.804 83.3335 189.933 83.1121 189.072C82.8846 188.188 82.3212 187.596 81.4486 187.35C80.946 187.208 80.4181 187.129 79.8963 187.088C78.9926 187.017 78.0896 187.06 77.211 187.317C76.2048 187.613 75.5797 188.271 75.3731 189.302C75.2281 190.024 75.2255 190.751 75.3584 191.477C75.5494 192.525 76.164 193.192 77.1772 193.502C77.8691 193.714 78.5828 193.756 79.3051 193.811Z" fill="white"/>
	<path d="M97.633 197.581C95.8151 197.568 94.2228 197.291 92.7643 196.485C90.6017 195.289 89.4383 193.438 89.2777 190.976C89.1405 188.863 89.7048 186.984 91.2476 185.469C92.338 184.398 93.6759 183.783 95.1587 183.489C97.2684 183.07 99.3547 183.153 101.359 183.982C103.732 184.964 105.2 186.717 105.571 189.281C105.885 191.454 105.448 193.456 103.92 195.12C102.833 196.306 101.445 196.971 99.8938 197.316C99.4719 197.41 99.0404 197.471 98.6106 197.52C98.2304 197.563 97.8466 197.568 97.6322 197.581H97.633ZM97.4507 187.007C96.8378 187.092 96.2153 187.137 95.6128 187.271C94.5258 187.513 93.807 188.171 93.5656 189.287C93.4198 189.964 93.4137 190.648 93.5187 191.331C93.7011 192.519 94.3895 193.265 95.5459 193.544C96.9029 193.872 98.2694 193.88 99.6134 193.469C100.501 193.198 101.088 192.605 101.314 191.693C101.528 190.837 101.523 189.975 101.303 189.121C101.069 188.213 100.474 187.643 99.5951 187.348C98.9006 187.116 98.1809 187.075 97.4507 187.006V187.007Z" fill="white"/>
	<path d="M110.136 187.181H107.005V183.512H110.132V179.527H114.329V183.51H117.959V187.172H114.349V193.644C114.443 193.644 114.528 193.644 114.613 193.644C115.849 193.644 117.085 193.648 118.322 193.641C118.505 193.64 118.572 193.676 118.57 193.877C118.56 194.953 118.566 196.03 118.565 197.106C118.565 197.17 118.558 197.233 118.553 197.31C118.471 197.314 118.401 197.32 118.33 197.32C117.174 197.32 116.017 197.323 114.86 197.32C113.849 197.317 112.893 197.102 112.045 196.528C110.989 195.814 110.414 194.793 110.217 193.552C110.162 193.204 110.142 192.848 110.141 192.495C110.133 190.818 110.137 189.143 110.137 187.466C110.137 187.381 110.137 187.296 110.137 187.182L110.136 187.181Z" fill="white"/>
	</g>
	<defs>
	<clipPath id="clip0_785_3304">
	<rect width="115" height="134" fill="white" transform="translate(2)"/>
	</clipPath>
	<clipPath id="clip1_785_3304">
	<rect width="118.135" height="24" fill="white" transform="translate(0.432617 178)"/>
	</clipPath>
	</defs>
	</svg>
	